<svg width="33" height="33" viewBox="0 0 33 33" fill="none" xmlns="http://www.w3.org/2000/svg">
<g clip-path="url(#clip0_108_1603)">
<path d="M10.307 25.6335V11.9799H5.74127V25.6335H10.307ZM8.0247 10.1147C9.61683 10.1147 10.6079 9.06623 10.6079 7.75604C10.5782 6.4163 9.61689 5.39697 8.05491 5.39697C6.49317 5.39697 5.47189 6.41632 5.47189 7.75604C5.47189 9.06629 6.46268 10.1147 7.99489 10.1147H8.02456H8.0247ZM12.834 25.6335H17.3997V18.0087C17.3997 17.6006 17.4294 17.193 17.55 16.9013C17.88 16.0859 18.6313 15.2415 19.8925 15.2415C21.5446 15.2415 22.2056 16.4936 22.2056 18.329V25.6334H26.771V17.8046C26.771 13.6107 24.5185 11.6594 21.5146 11.6594C19.0516 11.6594 17.9701 13.0278 17.3694 13.9599H17.3998V11.9797H12.8341C12.8941 13.2608 12.8341 25.6332 12.8341 25.6332L12.834 25.6335Z" fill="white"/>
</g>
<defs>
<clipPath id="clip0_108_1603">
<rect width="21.2958" height="20.2365" fill="white" transform="translate(5.47189 5.39697)"/>
</clipPath>
</defs>
</svg>
