<svg width="32" height="33" viewBox="0 0 32 33" fill="none" xmlns="http://www.w3.org/2000/svg">
<g clip-path="url(#clip0_108_1599)">
<path d="M16.0331 10.7355C13.0099 10.7355 10.5713 13.1686 10.5713 16.1851C10.5713 19.2016 13.0099 21.6347 16.0331 21.6347C19.0563 21.6347 21.4949 19.2016 21.4949 16.1851C21.4949 13.1686 19.0563 10.7355 16.0331 10.7355ZM16.0331 19.728C14.0794 19.728 12.4822 18.1392 12.4822 16.1851C12.4822 14.231 14.0746 12.6421 16.0331 12.6421C17.9915 12.6421 19.584 14.231 19.584 16.1851C19.584 18.1392 17.9868 19.728 16.0331 19.728ZM22.9922 10.5125C22.9922 11.2192 22.4218 11.7836 21.7183 11.7836C21.01 11.7836 20.4444 11.2145 20.4444 10.5125C20.4444 9.81059 21.0148 9.24144 21.7183 9.24144C22.4218 9.24144 22.9922 9.81059 22.9922 10.5125ZM26.6097 11.8026C26.5289 10.0999 26.1391 8.59166 24.8889 7.34901C23.6435 6.10637 22.1319 5.71745 20.4253 5.63207C18.6665 5.53247 13.3949 5.53247 11.6361 5.63207C9.93433 5.7127 8.42271 6.10162 7.17253 7.34427C5.92236 8.58692 5.53732 10.0952 5.45176 11.7979C5.35194 13.5528 5.35194 18.8127 5.45176 20.5675C5.53257 22.2702 5.92236 23.7785 7.17253 25.0211C8.42271 26.2638 9.92958 26.6527 11.6361 26.7381C13.3949 26.8377 18.6665 26.8377 20.4253 26.7381C22.1319 26.6575 23.6435 26.2685 24.8889 25.0211C26.1343 23.7785 26.5241 22.2702 26.6097 20.5675C26.7095 18.8127 26.7095 13.5575 26.6097 11.8026ZM24.3375 22.4505C23.9667 23.3801 23.2489 24.0963 22.3125 24.471C20.9102 25.0259 17.5827 24.8978 16.0331 24.8978C14.4834 24.8978 11.1512 25.0211 9.75369 24.471C8.82201 24.101 8.10422 23.3848 7.7287 22.4505C7.17253 21.0513 7.30088 17.7313 7.30088 16.1851C7.30088 14.6389 7.17729 11.3141 7.7287 9.91968C8.09947 8.99006 8.81725 8.27388 9.75369 7.89919C11.156 7.34427 14.4834 7.47233 16.0331 7.47233C17.5827 7.47233 20.915 7.34901 22.3125 7.89919C23.2442 8.26914 23.962 8.98532 24.3375 9.91968C24.8937 11.3188 24.7653 14.6389 24.7653 16.1851C24.7653 17.7313 24.8937 21.0561 24.3375 22.4505Z" fill="white"/>
</g>
<defs>
<clipPath id="clip0_108_1599">
<rect width="21.2958" height="24.2838" fill="white" transform="translate(5.38043 4.04785)"/>
</clipPath>
</defs>
</svg>
