<svg width="33" height="33" viewBox="0 0 33 33" fill="none" xmlns="http://www.w3.org/2000/svg">
<g clip-path="url(#clip0_108_1607)">
<path d="M28.8588 9.04595C27.9616 9.42973 27.0101 9.68164 26.0357 9.79331C27.0506 9.20591 27.8299 8.27572 28.1968 7.16742C27.232 7.7203 26.1764 8.10983 25.0757 8.31919C24.179 7.39678 22.9017 6.82031 21.4879 6.82031C18.7734 6.82031 16.5725 8.94546 16.5725 11.5666C16.5725 11.9386 16.6161 12.3008 16.6998 12.6483C12.6148 12.4503 8.9931 10.5607 6.56878 7.68913C6.14577 8.39013 5.90339 9.20554 5.90339 10.0753C5.90339 11.722 6.7712 13.1747 8.09 14.0259C7.30946 14.0023 6.54608 13.7987 5.86362 13.4322C5.86334 13.452 5.86334 13.4719 5.86334 13.4919C5.86334 15.7915 7.5576 17.7099 9.80607 18.146C9.08227 18.336 8.32306 18.3639 7.58642 18.2273C8.21185 20.113 10.0271 21.4851 12.1779 21.5235C10.4957 22.7965 8.37628 23.5553 6.07353 23.5553C5.67673 23.5553 5.28554 23.5328 4.901 23.489C7.0762 24.8357 9.6598 25.6215 12.4355 25.6215C21.4765 25.6215 26.4203 18.3891 26.4203 12.117C26.4203 11.9111 26.4156 11.7064 26.4061 11.5029C27.3684 10.8312 28.1989 9.99919 28.8588 9.04595Z" fill="white"/>
</g>
<defs>
<clipPath id="clip0_108_1607">
<rect width="23.9578" height="18.8874" fill="white" transform="translate(4.90112 6.74561)"/>
</clipPath>
</defs>
</svg>
